<?xml version="1.0" encoding="UTF-8"?>
<mxfile host="app.diagrams.net" agent="5.0" version="24.7.17">
  <diagram name="Traffic Flow" id="network-topology">
    <mxGraphModel dx="1434" dy="726" grid="1" gridSize="10" guides="1" tooltips="1" connect="1" arrows="1" fold="1" page="1" pageScale="1" pageWidth="850" pageHeight="1100" math="0" shadow="0">
      <root>
        <mxCell id="0" />
        <mxCell id="1" parent="0" />
        
        <!-- Gateway/Ingress -->
        <mxCell id="gateway" value="Gateway" style="ellipse;whiteSpace=wrap;html=1;fillColor=#d5e8d4;strokeColor=#82b366;" vertex="1" parent="1">
          <mxGeometry x="100" y="200" width="80" height="50" as="geometry" />
        </mxCell>
        
        <!-- Load Balancer -->
        <mxCell id="loadbalancer" value="Load Balancer" style="rhombus;whiteSpace=wrap;html=1;fillColor=#fff2cc;strokeColor=#d6b656;" vertex="1" parent="1">
          <mxGeometry x="280" y="180" width="100" height="80" as="geometry" />
        </mxCell>
        
        <!-- Service A -->
        <mxCell id="serviceA" value="Service A" style="rounded=1;whiteSpace=wrap;html=1;fillColor=#dae8fc;strokeColor=#6c8ebf;" vertex="1" parent="1">
          <mxGeometry x="480" y="120" width="80" height="50" as="geometry" />
        </mxCell>
        
        <!-- Service B -->
        <mxCell id="serviceB" value="Service B" style="rounded=1;whiteSpace=wrap;html=1;fillColor=#dae8fc;strokeColor=#6c8ebf;" vertex="1" parent="1">
          <mxGeometry x="480" y="240" width="80" height="50" as="geometry" />
        </mxCell>
        
        <!-- Database -->
        <mxCell id="database" value="Database" style="shape=cylinder3;whiteSpace=wrap;html=1;boundedLbl=1;backgroundOutline=1;size=15;fillColor=#f8cecc;strokeColor=#b85450;" vertex="1" parent="1">
          <mxGeometry x="680" y="120" width="70" height="80" as="geometry" />
        </mxCell>
        
        <!-- Cache -->
        <mxCell id="cache" value="Redis Cache" style="rounded=1;whiteSpace=wrap;html=1;fillColor=#e1d5e7;strokeColor=#9673a6;" vertex="1" parent="1">
          <mxGeometry x="680" y="240" width="80" height="50" as="geometry" />
        </mxCell>
        
        <!-- Output Sink -->
        <mxCell id="output" value="Output Sink" style="ellipse;whiteSpace=wrap;html=1;fillColor=#f5f5f5;strokeColor=#666666;" vertex="1" parent="1">
          <mxGeometry x="850" y="180" width="80" height="50" as="geometry" />
        </mxCell>
        
        <!-- Connections -->
        <!-- Gateway to Load Balancer -->
        <mxCell id="conn1" value="" style="edgeStyle=orthogonalEdgeStyle;rounded=0;orthogonalLoop=1;jettySize=auto;html=1;" edge="1" parent="1" source="gateway" target="loadbalancer">
          <mxGeometry relative="1" as="geometry" />
        </mxCell>
        
        <!-- Load Balancer to Services -->
        <mxCell id="conn2" value="" style="edgeStyle=orthogonalEdgeStyle;rounded=0;orthogonalLoop=1;jettySize=auto;html=1;" edge="1" parent="1" source="loadbalancer" target="serviceA">
          <mxGeometry relative="1" as="geometry" />
        </mxCell>
        
        <mxCell id="conn3" value="" style="edgeStyle=orthogonalEdgeStyle;rounded=0;orthogonalLoop=1;jettySize=auto;html=1;" edge="1" parent="1" source="loadbalancer" target="serviceB">
          <mxGeometry relative="1" as="geometry" />
        </mxCell>
        
        <!-- Service A to Database -->
        <mxCell id="conn4" value="" style="edgeStyle=orthogonalEdgeStyle;rounded=0;orthogonalLoop=1;jettySize=auto;html=1;" edge="1" parent="1" source="serviceA" target="database">
          <mxGeometry relative="1" as="geometry" />
        </mxCell>
        
        <!-- Service B to Cache -->
        <mxCell id="conn5" value="" style="edgeStyle=orthogonalEdgeStyle;rounded=0;orthogonalLoop=1;jettySize=auto;html=1;" edge="1" parent="1" source="serviceB" target="cache">
          <mxGeometry relative="1" as="geometry" />
        </mxCell>
        
        <!-- Database to Output -->
        <mxCell id="conn6" value="" style="edgeStyle=orthogonalEdgeStyle;rounded=0;orthogonalLoop=1;jettySize=auto;html=1;" edge="1" parent="1" source="database" target="output">
          <mxGeometry relative="1" as="geometry" />
        </mxCell>
        
        <!-- Cache to Output -->
        <mxCell id="conn7" value="" style="edgeStyle=orthogonalEdgeStyle;rounded=0;orthogonalLoop=1;jettySize=auto;html=1;" edge="1" parent="1" source="cache" target="output">
          <mxGeometry relative="1" as="geometry" />
        </mxCell>
        
      </root>
    </mxGraphModel>
  </diagram>
</mxfile>
